M48
;GenerationSoftware,Autodesk,EAGLE,9.2.2*%
;CreationDate,2019-05-21T20:46:43Z*%
FMAT,2
ICI,OFF
METRIC,TZ,000.000
T9C0.350
T8C0.500
T7C0.700
T6C0.813
T5C0.900
T4C1.016
T3C1.200
T2C1.204
T1C3.302
%
G90
M71
T1
X106000Y16000
X4000Y68000
X4000Y16000
X106000Y68000
T2
X26807Y68836
X34807Y68836
T3
X32607Y59436
X30607Y59436
X26607Y59436
X28607Y59436
X34607Y59436
T4
X104267Y39370
X104267Y36830
X45466Y39751
X37592Y20574
X106807Y39370
X29972Y18034
X106807Y36830
X103403Y56820
X107925Y56820
X106807Y41910
X27432Y20574
X29972Y20574
X32512Y20574
X35052Y20574
X103403Y63322
X40132Y20574
X27432Y18034
X35052Y18034
X37592Y18034
X40132Y18034
X42672Y20574
X45212Y20574
X42672Y18034
X45212Y18034
X47752Y20574
X32512Y18034
X50292Y20574
X50292Y18034
X107925Y63322
X43332Y68783
X47854Y62281
X43332Y62281
X47854Y68783
X47752Y18034
X104267Y41910
X42926Y39751
X83185Y66548
X80645Y66548
X78105Y66548
X106553Y47371
X106553Y49911
X106553Y52451
X35306Y37211
X37846Y37211
X40386Y37211
X42926Y37211
X45466Y37211
X35306Y39751
X37846Y39751
X40386Y39751
T5
X16637Y44490
X16637Y49490
X5842Y43347
X5842Y48347
X14264Y31242
X3850Y34671
X25821Y29083
X30821Y29083
X26503Y38862
X21503Y38862
X8850Y34671
X19264Y31242
T6
X62230Y36703
X67310Y36703
X69850Y36703
X72390Y36703
X106807Y25654
X106807Y23114
X99187Y30734
X99187Y28194
X106807Y28194
X106807Y30734
X99187Y25654
X99187Y23114
X64770Y36703
T7
X4572Y56368
X4572Y53868
T8
X54737Y31369
X5588Y11557
X18542Y34925
X29718Y34798
X1651Y11684
X13462Y50165
X21336Y11684
X53975Y30226
X13397Y11684
X9460Y11684
X14859Y52197
X36195Y11303
X20574Y14478
X37846Y11303
T9
X8255Y61468
X8255Y62611
X8255Y66040
X8255Y67183
X8255Y68326
X9017Y69215
X10160Y69215
X11303Y69215
X12446Y69215
X13589Y69215
X14732Y69215
X15875Y69215
X17018Y69215
X18161Y69215
X19304Y69215
X20320Y69088
X20701Y68199
X20701Y67056
X20701Y65913
X20701Y62611
X20701Y61468
X20701Y60325
X20701Y59182
X20701Y58039
X1651Y70358
X1651Y65532
X1524Y52324
X1778Y40513
X30607Y70231
X39624Y70358
X51943Y67691
X35052Y48641
X33274Y45974
X37211Y53594
X72492Y50775
X70739Y48387
X61214Y48387
X74041Y35560
X58293Y35306
X87122Y39624
X97917Y36322
X97028Y19558
X101092Y17653
X87630Y12446
X108204Y18669
X103124Y17780
X108331Y34290
X108331Y39751
X106807Y54356
X108331Y59436
X108331Y65659
X108331Y70231
X103505Y70231
X96774Y57150
X101219Y55118
X96901Y52324
X91059Y52197
X90932Y45085
X87630Y55245
X101346Y47244
X75311Y67310
X74930Y60452
X70993Y64897
X70993Y66548
X70993Y60452
X54864Y62865
X49403Y62103
X49403Y60579
X40640Y24638
X40640Y16256
X41783Y11303
X34163Y11303
X25908Y14097
X24638Y19431
X38100Y13462
X83439Y19939
X29337Y45339
X47498Y54102
X78359Y45212
X56769Y48387
X50292Y55753
X31242Y16510
X50546Y11303
X55880Y11303
X59182Y11303
X62865Y11303
X53213Y11303
X67818Y11303
X71247Y11303
X78867Y11176
X28067Y11303
X19558Y11303
X1524Y13843
X50038Y46228
X49530Y50673
X60960Y41402
X73152Y39624
X75311Y43942
X70866Y42037
X62611Y38862
X33528Y33020
X23368Y43307
X25273Y44704
X22860Y48133
X19939Y51435
X18288Y52705
X21971Y50546
X45593Y65532
X10668Y49530
X8001Y47244
X11176Y41656
X13716Y41402
X10541Y33528
X20193Y33020
X24511Y32893
X24511Y35941
X13970Y25908
X13589Y21336
X12065Y16637
X7239Y18288
X28702Y16510
X47625Y26416
X43815Y54864
X41783Y46990
X36703Y42164
X33528Y61214
X99568Y67691
X100330Y62611
X87757Y28067
X33782Y16510
X61341Y50927
X56007Y52705
X65786Y48387
X58801Y44196
X88900Y62992
X70358Y40005
X97917Y32131
X101346Y42164
X18034Y28194
X38227Y64770
X49657Y70358
X54991Y70485
X99314Y13462
X60960Y18288
X22073Y21184
X7112Y40513
X14859Y50800
X9398Y55626
X15367Y56388
X13462Y56388
X73533Y11303
X90551Y11176
X98171Y11176
X95199Y18034
X66675Y27559
X86995Y53340
X108458Y13589
X93853Y28829
X82169Y35052
X80518Y40640
X83566Y39624
X76708Y13081
X52578Y23368
X52705Y29337
X46355Y30734
X42469Y30963
X40259Y26035
X20193Y28829
X22098Y30988
X22174Y24740
X85979Y70231
X67056Y52832
X51435Y13462
X13589Y19050
X36322Y16510
X39497Y19304
X95885Y60325
X90043Y66675
X94234Y70231
X87300Y46533
X102235Y33528
X102870Y31496
X82042Y11938
X29337Y32893
X24003Y55118
X32131Y57023
X85598Y43840
X97942Y43383
X102108Y53340
X100457Y24384
X29464Y25273
X75997Y24010
X87757Y24010
X64519Y24010
X53848Y23368
X89916Y44196
X98679Y43942
X27559Y45339
X28090Y51185
X74168Y41529
X74422Y49585
X94107Y59055
X29591Y41529
X1651Y26289
X19685Y17526
X68132Y55626
X59309Y56896
X67525Y56388
X60706Y56769
X74803Y55753
X73533Y52705
X55070Y64159
X75517Y64820
X73435Y63954
X73435Y67538
X71834Y63954
X71834Y67538
X69371Y63954
X69371Y67538
X54737Y59563
X51435Y28194
X65433Y63954
X65433Y67538
X63833Y63954
X63833Y67538
X67770Y63954
X67770Y67538
X54737Y60579
X50165Y28194
X61547Y63954
X61547Y67487
X59922Y63954
X59947Y67487
X57788Y63928
X57788Y67487
X54737Y61595
X48895Y28194
X41275Y15367
X56515Y17399
X60833Y19304
X58330Y17336
X65024Y17526
X67161Y17168
X74625Y12725
X72009Y19304
X72936Y17082
X77851Y12446
X81280Y13589
X86614Y13716
X87645Y15128
X91440Y15621
X88900Y20574
X95758Y15621
X52070Y11303
X57658Y10668
X61468Y10668
X65405Y10668
X69342Y10668
X72644Y10668
X77343Y10668
X81510Y10795
X85090Y10795
X89027Y10795
X93091Y10795
X97028Y10795
X83185Y18161
X85471Y18161
X89916Y20828
X95758Y16764
X99568Y10795
X65913Y52705
X66167Y55880
X56896Y56134
X55880Y54356
X64008Y52705
X44704Y43942
X46228Y45085
X68326Y52705
X55245Y55372
X43561Y43688
X43815Y45304
X45466Y43053
X42164Y26543
X62611Y50927
X57023Y45847
X59817Y45466
X75946Y62738
X49911Y36703
X39624Y31623
X39624Y27813
X50673Y35814
X41275Y50546
X42545Y50546
X43815Y50546
X45085Y50546
X52197Y41656
X85852Y65786
X51181Y41656
X86487Y65024
X50927Y40005
X87122Y65786
X51943Y39624
X87757Y65024
X54474Y26924
X57023Y44704
X88138Y21209
X76391Y21209
X64960Y21209
X53530Y21209
X85090Y41148
X78105Y26924
X89090Y21527
X77343Y21527
X65913Y21527
X54483Y21527
X86487Y41148
X79169Y26876
X90043Y21844
X78296Y21844
X66866Y21844
X55435Y21844
X79883Y34798
X80264Y26924
X90995Y22161
X79248Y22161
X67818Y22161
X56388Y22161
X80518Y35687
X81407Y26924
X91948Y22479
X80201Y22479
X68771Y22479
X57340Y22479
X92900Y22796
X81153Y22796
X69723Y22796
X58293Y22796
X93853Y23114
X82106Y23114
X70676Y23114
X59245Y23114
X83693Y25336
X72263Y25336
X60833Y25336
X94623Y23757
X74168Y26063
X89027Y26543
X96647Y21336
X82042Y56261
X17399Y10541
X74803Y46355
X81153Y43561
X79883Y47371
X80264Y44450
X80772Y47879
X84328Y42545
X62738Y28702
X85344Y42545
X97663Y41275
X79609Y35707
X98552Y39878
X81153Y33909
X97790Y39116
X98552Y38354
X76962Y26924
X97790Y37592
X75819Y26797
X90932Y21082
X94488Y17399
X91948Y21336
X95758Y18796
X74422Y48260
X73025Y43434
X57023Y46990
X59817Y46990
X60452Y50165
X86233Y48768
X55245Y53467
X104902Y20193
X45466Y49149
X52324Y37338
X51689Y35636
X44831Y48260
X49022Y37211
X44196Y47498
X30988Y45847
X30226Y53213
X29464Y47625
X28575Y56515
X6731Y58293
X16383Y56769
X5842Y63754
X2921Y63754
X62742Y18411
X75692Y17907
X89154Y17145
X98679Y14478
X68834Y33782
X90678Y57023
X75184Y37719
X99060Y57150
X79248Y43942
X88519Y57023
X46355Y50546
X46355Y59182
X45974Y46609
X42164Y24003
X49403Y11303
X44323Y13335
X47498Y11430
X51435Y26416
X50165Y26416
X48895Y26416
X57150Y38100
X61976Y33782
X61595Y56134
X55118Y57658
X59690Y55626
X55753Y56769
X50673Y62230
X50292Y44196
X46736Y28321
X40132Y54610
X32766Y33909
X78740Y58039
X81407Y57277
X84709Y62103
X87249Y43942
X98527Y45060
X72771Y33782
X75184Y40513
X73914Y45212
X58420Y36322
X60833Y33782
X56769Y50419
X58801Y48387
X57023Y42926
X58420Y40513
X58039Y52705
X74168Y51054
X108458Y12319
X106934Y12319
X65405Y33782
X70866Y33782
X58801Y50927
X61341Y52832
X70993Y55880
X84328Y34417
X85852Y33782
X83820Y31623
X81534Y31623
X102870Y23876
X103124Y11811
X14097Y46990
X91440Y14097
X93853Y12065
X84201Y13589
X60325Y26670
X62230Y16383
X63881Y16383
X83439Y27178
X75565Y33528
X71882Y18288
X55118Y58674
X39116Y35814
X34544Y29464
X35052Y22479
X33782Y25654
X30607Y22479
X32639Y29210
X27432Y25273
X27432Y27940
X31750Y31750
X27559Y32893
X21844Y36195
X27559Y35814
X19812Y23749
X19812Y21209
X25527Y15748
X19304Y13843
X23774Y12573
X14986Y11303
X12192Y13081
X1524Y18669
X1651Y28575
X1651Y27432
X1651Y25146
X1651Y24003
X1651Y22860
X1651Y21717
X2667Y21336
X3810Y21336
X4953Y21336
X6096Y21336
X7239Y21336
X2794Y28702
X3937Y28702
X5080Y28702
X6223Y28702
X7366Y28702
X8509Y28702
X8382Y21336
X18288Y32893
X10541Y35814
X17526Y35941
X8255Y58039
X8255Y59182
X8255Y60325
X98679Y41529
M30