G04 EAGLE Gerber RS-274X export*
G75*
%MOMM*%
%FSLAX34Y34*%
%LPD*%
%IN*%
%IPPOS*%
%AMOC8*
5,1,8,0,0,1.08239X$1,22.5*%
G01*
%ADD10C,0.254000*%


D10*
X0Y0D02*
X240030Y0D01*
X240030Y110490D01*
X265430Y110490D01*
X265430Y0D01*
X1100000Y0D01*
X1100000Y720000D01*
X0Y720000D01*
X0Y0D01*
X56510Y159460D02*
X56439Y158381D01*
X56298Y157309D01*
X56087Y156249D01*
X55808Y155205D01*
X55460Y154181D01*
X55046Y153183D01*
X54568Y152213D01*
X54028Y151277D01*
X53427Y150378D01*
X52769Y149521D01*
X52057Y148708D01*
X51292Y147944D01*
X50479Y147231D01*
X49622Y146573D01*
X48723Y145972D01*
X47787Y145432D01*
X46817Y144954D01*
X45819Y144540D01*
X44795Y144192D01*
X43751Y143913D01*
X42691Y143702D01*
X41619Y143561D01*
X40540Y143490D01*
X39460Y143490D01*
X38381Y143561D01*
X37309Y143702D01*
X36249Y143913D01*
X35205Y144192D01*
X34181Y144540D01*
X33183Y144954D01*
X32213Y145432D01*
X31277Y145972D01*
X30378Y146573D01*
X29521Y147231D01*
X28708Y147944D01*
X27944Y148708D01*
X27231Y149521D01*
X26573Y150378D01*
X25972Y151277D01*
X25432Y152213D01*
X24954Y153183D01*
X24540Y154181D01*
X24192Y155205D01*
X23913Y156249D01*
X23702Y157309D01*
X23561Y158381D01*
X23490Y159460D01*
X23490Y160540D01*
X23561Y161619D01*
X23702Y162691D01*
X23913Y163751D01*
X24192Y164795D01*
X24540Y165819D01*
X24954Y166817D01*
X25432Y167787D01*
X25972Y168723D01*
X26573Y169622D01*
X27231Y170479D01*
X27944Y171292D01*
X28708Y172057D01*
X29521Y172769D01*
X30378Y173427D01*
X31277Y174028D01*
X32213Y174568D01*
X33183Y175046D01*
X34181Y175460D01*
X35205Y175808D01*
X36249Y176087D01*
X37309Y176298D01*
X38381Y176439D01*
X39460Y176510D01*
X40540Y176510D01*
X41619Y176439D01*
X42691Y176298D01*
X43751Y176087D01*
X44795Y175808D01*
X45819Y175460D01*
X46817Y175046D01*
X47787Y174568D01*
X48723Y174028D01*
X49622Y173427D01*
X50479Y172769D01*
X51292Y172057D01*
X52057Y171292D01*
X52769Y170479D01*
X53427Y169622D01*
X54028Y168723D01*
X54568Y167787D01*
X55046Y166817D01*
X55460Y165819D01*
X55808Y164795D01*
X56087Y163751D01*
X56298Y162691D01*
X56439Y161619D01*
X56510Y160540D01*
X56510Y159460D01*
X1076510Y679460D02*
X1076439Y678381D01*
X1076298Y677309D01*
X1076087Y676249D01*
X1075808Y675205D01*
X1075460Y674181D01*
X1075046Y673183D01*
X1074568Y672213D01*
X1074028Y671277D01*
X1073427Y670378D01*
X1072769Y669521D01*
X1072057Y668708D01*
X1071292Y667944D01*
X1070479Y667231D01*
X1069622Y666573D01*
X1068723Y665972D01*
X1067787Y665432D01*
X1066817Y664954D01*
X1065819Y664540D01*
X1064795Y664192D01*
X1063751Y663913D01*
X1062691Y663702D01*
X1061619Y663561D01*
X1060540Y663490D01*
X1059460Y663490D01*
X1058381Y663561D01*
X1057309Y663702D01*
X1056249Y663913D01*
X1055205Y664192D01*
X1054181Y664540D01*
X1053183Y664954D01*
X1052213Y665432D01*
X1051277Y665972D01*
X1050378Y666573D01*
X1049521Y667231D01*
X1048708Y667944D01*
X1047944Y668708D01*
X1047231Y669521D01*
X1046573Y670378D01*
X1045972Y671277D01*
X1045432Y672213D01*
X1044954Y673183D01*
X1044540Y674181D01*
X1044192Y675205D01*
X1043913Y676249D01*
X1043702Y677309D01*
X1043561Y678381D01*
X1043490Y679460D01*
X1043490Y680540D01*
X1043561Y681619D01*
X1043702Y682691D01*
X1043913Y683751D01*
X1044192Y684795D01*
X1044540Y685819D01*
X1044954Y686817D01*
X1045432Y687787D01*
X1045972Y688723D01*
X1046573Y689622D01*
X1047231Y690479D01*
X1047944Y691292D01*
X1048708Y692057D01*
X1049521Y692769D01*
X1050378Y693427D01*
X1051277Y694028D01*
X1052213Y694568D01*
X1053183Y695046D01*
X1054181Y695460D01*
X1055205Y695808D01*
X1056249Y696087D01*
X1057309Y696298D01*
X1058381Y696439D01*
X1059460Y696510D01*
X1060540Y696510D01*
X1061619Y696439D01*
X1062691Y696298D01*
X1063751Y696087D01*
X1064795Y695808D01*
X1065819Y695460D01*
X1066817Y695046D01*
X1067787Y694568D01*
X1068723Y694028D01*
X1069622Y693427D01*
X1070479Y692769D01*
X1071292Y692057D01*
X1072057Y691292D01*
X1072769Y690479D01*
X1073427Y689622D01*
X1074028Y688723D01*
X1074568Y687787D01*
X1075046Y686817D01*
X1075460Y685819D01*
X1075808Y684795D01*
X1076087Y683751D01*
X1076298Y682691D01*
X1076439Y681619D01*
X1076510Y680540D01*
X1076510Y679460D01*
X1076510Y159460D02*
X1076439Y158381D01*
X1076298Y157309D01*
X1076087Y156249D01*
X1075808Y155205D01*
X1075460Y154181D01*
X1075046Y153183D01*
X1074568Y152213D01*
X1074028Y151277D01*
X1073427Y150378D01*
X1072769Y149521D01*
X1072057Y148708D01*
X1071292Y147944D01*
X1070479Y147231D01*
X1069622Y146573D01*
X1068723Y145972D01*
X1067787Y145432D01*
X1066817Y144954D01*
X1065819Y144540D01*
X1064795Y144192D01*
X1063751Y143913D01*
X1062691Y143702D01*
X1061619Y143561D01*
X1060540Y143490D01*
X1059460Y143490D01*
X1058381Y143561D01*
X1057309Y143702D01*
X1056249Y143913D01*
X1055205Y144192D01*
X1054181Y144540D01*
X1053183Y144954D01*
X1052213Y145432D01*
X1051277Y145972D01*
X1050378Y146573D01*
X1049521Y147231D01*
X1048708Y147944D01*
X1047944Y148708D01*
X1047231Y149521D01*
X1046573Y150378D01*
X1045972Y151277D01*
X1045432Y152213D01*
X1044954Y153183D01*
X1044540Y154181D01*
X1044192Y155205D01*
X1043913Y156249D01*
X1043702Y157309D01*
X1043561Y158381D01*
X1043490Y159460D01*
X1043490Y160540D01*
X1043561Y161619D01*
X1043702Y162691D01*
X1043913Y163751D01*
X1044192Y164795D01*
X1044540Y165819D01*
X1044954Y166817D01*
X1045432Y167787D01*
X1045972Y168723D01*
X1046573Y169622D01*
X1047231Y170479D01*
X1047944Y171292D01*
X1048708Y172057D01*
X1049521Y172769D01*
X1050378Y173427D01*
X1051277Y174028D01*
X1052213Y174568D01*
X1053183Y175046D01*
X1054181Y175460D01*
X1055205Y175808D01*
X1056249Y176087D01*
X1057309Y176298D01*
X1058381Y176439D01*
X1059460Y176510D01*
X1060540Y176510D01*
X1061619Y176439D01*
X1062691Y176298D01*
X1063751Y176087D01*
X1064795Y175808D01*
X1065819Y175460D01*
X1066817Y175046D01*
X1067787Y174568D01*
X1068723Y174028D01*
X1069622Y173427D01*
X1070479Y172769D01*
X1071292Y172057D01*
X1072057Y171292D01*
X1072769Y170479D01*
X1073427Y169622D01*
X1074028Y168723D01*
X1074568Y167787D01*
X1075046Y166817D01*
X1075460Y165819D01*
X1075808Y164795D01*
X1076087Y163751D01*
X1076298Y162691D01*
X1076439Y161619D01*
X1076510Y160540D01*
X1076510Y159460D01*
X56510Y679460D02*
X56439Y678381D01*
X56298Y677309D01*
X56087Y676249D01*
X55808Y675205D01*
X55460Y674181D01*
X55046Y673183D01*
X54568Y672213D01*
X54028Y671277D01*
X53427Y670378D01*
X52769Y669521D01*
X52057Y668708D01*
X51292Y667944D01*
X50479Y667231D01*
X49622Y666573D01*
X48723Y665972D01*
X47787Y665432D01*
X46817Y664954D01*
X45819Y664540D01*
X44795Y664192D01*
X43751Y663913D01*
X42691Y663702D01*
X41619Y663561D01*
X40540Y663490D01*
X39460Y663490D01*
X38381Y663561D01*
X37309Y663702D01*
X36249Y663913D01*
X35205Y664192D01*
X34181Y664540D01*
X33183Y664954D01*
X32213Y665432D01*
X31277Y665972D01*
X30378Y666573D01*
X29521Y667231D01*
X28708Y667944D01*
X27944Y668708D01*
X27231Y669521D01*
X26573Y670378D01*
X25972Y671277D01*
X25432Y672213D01*
X24954Y673183D01*
X24540Y674181D01*
X24192Y675205D01*
X23913Y676249D01*
X23702Y677309D01*
X23561Y678381D01*
X23490Y679460D01*
X23490Y680540D01*
X23561Y681619D01*
X23702Y682691D01*
X23913Y683751D01*
X24192Y684795D01*
X24540Y685819D01*
X24954Y686817D01*
X25432Y687787D01*
X25972Y688723D01*
X26573Y689622D01*
X27231Y690479D01*
X27944Y691292D01*
X28708Y692057D01*
X29521Y692769D01*
X30378Y693427D01*
X31277Y694028D01*
X32213Y694568D01*
X33183Y695046D01*
X34181Y695460D01*
X35205Y695808D01*
X36249Y696087D01*
X37309Y696298D01*
X38381Y696439D01*
X39460Y696510D01*
X40540Y696510D01*
X41619Y696439D01*
X42691Y696298D01*
X43751Y696087D01*
X44795Y695808D01*
X45819Y695460D01*
X46817Y695046D01*
X47787Y694568D01*
X48723Y694028D01*
X49622Y693427D01*
X50479Y692769D01*
X51292Y692057D01*
X52057Y691292D01*
X52769Y690479D01*
X53427Y689622D01*
X54028Y688723D01*
X54568Y687787D01*
X55046Y686817D01*
X55460Y685819D01*
X55808Y684795D01*
X56087Y683751D01*
X56298Y682691D01*
X56439Y681619D01*
X56510Y680540D01*
X56510Y679460D01*
M02*
