G04 EAGLE Gerber RS-274X export*
G75*
%MOMM*%
%FSLAX34Y34*%
%LPD*%
%INSoldermask Top*%
%IPPOS*%
%AMOC8*
5,1,8,0,0,1.08239X$1,22.5*%
G01*
%ADD10R,110.236000X10.668000*%
%ADD11R,1.703200X0.553200*%
%ADD12R,0.553200X1.703200*%
%ADD13R,7.403200X6.553200*%
%ADD14R,0.600000X1.000000*%
%ADD15R,1.000000X0.600000*%
%ADD16P,1.869504X8X22.500000*%
%ADD17R,0.653200X1.678200*%
%ADD18C,0.573200*%
%ADD19R,1.498200X0.803200*%
%ADD20C,1.524000*%
%ADD21R,2.235200X0.863600*%
%ADD22C,1.727200*%
%ADD23C,1.727200*%
%ADD24P,1.869504X8X112.500000*%
%ADD25C,3.505200*%
%ADD26C,2.133600*%
%ADD27R,2.133600X2.133600*%
%ADD28R,0.508000X1.193800*%
%ADD29R,1.503200X1.803200*%
%ADD30R,1.803200X1.503200*%
%ADD31R,1.503200X1.703200*%
%ADD32R,1.703200X1.503200*%
%ADD33R,0.803200X2.603200*%
%ADD34R,10.683200X10.623200*%
%ADD35C,1.854200*%
%ADD36R,1.854200X1.854200*%
%ADD37C,2.003200*%
%ADD38C,2.009500*%
%ADD39R,1.803200X1.203200*%
%ADD40R,6.403200X5.603200*%
%ADD41R,2.438400X1.422400*%
%ADD42R,2.403200X3.803200*%
%ADD43R,1.403200X1.403200*%
%ADD44R,0.853200X1.103200*%
%ADD45R,0.853200X1.703200*%
%ADD46R,0.853200X1.728200*%
%ADD47R,0.903200X1.403200*%
%ADD48R,1.403200X1.203200*%
%ADD49R,1.203200X1.403200*%
%ADD50R,1.203200X3.003200*%
%ADD51R,1.503200X2.103200*%
%ADD52C,0.959600*%


D10*
X549910Y48260D03*
D11*
X548145Y518315D03*
X548145Y513315D03*
X548145Y508315D03*
X548145Y503315D03*
X548145Y498315D03*
X548145Y493315D03*
X548145Y488315D03*
X548145Y483315D03*
X548145Y478315D03*
X548145Y473315D03*
X548145Y468315D03*
X548145Y463315D03*
X548145Y458315D03*
X548145Y453315D03*
X548145Y448315D03*
X548145Y443315D03*
X548145Y438315D03*
X548145Y433315D03*
X548145Y428315D03*
X548145Y423315D03*
X548145Y418315D03*
X548145Y413315D03*
X548145Y408315D03*
X548145Y403315D03*
X548145Y398315D03*
X548145Y393315D03*
X548145Y388315D03*
X548145Y383315D03*
X548145Y378315D03*
X548145Y373315D03*
X548145Y368315D03*
X548145Y363315D03*
X548145Y358315D03*
X548145Y353315D03*
X548145Y348315D03*
X548145Y343315D03*
D12*
X568145Y323315D03*
X573145Y323315D03*
X578145Y323315D03*
X583145Y323315D03*
X588145Y323315D03*
X593145Y323315D03*
X598145Y323315D03*
X603145Y323315D03*
X608145Y323315D03*
X613145Y323315D03*
X618145Y323315D03*
X623145Y323315D03*
X628145Y323315D03*
X633145Y323315D03*
X638145Y323315D03*
X643145Y323315D03*
X648145Y323315D03*
X653145Y323315D03*
X658145Y323315D03*
X663145Y323315D03*
X668145Y323315D03*
X673145Y323315D03*
X678145Y323315D03*
X683145Y323315D03*
X688145Y323315D03*
X693145Y323315D03*
X698145Y323315D03*
X703145Y323315D03*
X708145Y323315D03*
X713145Y323315D03*
X718145Y323315D03*
X723145Y323315D03*
X728145Y323315D03*
X733145Y323315D03*
X738145Y323315D03*
X743145Y323315D03*
D11*
X768145Y343315D03*
X768145Y348315D03*
X768145Y353315D03*
X768145Y358315D03*
X768145Y363315D03*
X768145Y368315D03*
X768145Y373315D03*
X768145Y378315D03*
X768145Y383315D03*
X768145Y388315D03*
X768145Y393315D03*
X768145Y398315D03*
X768145Y403315D03*
X768145Y408315D03*
X768145Y413315D03*
X768145Y418315D03*
X768145Y423315D03*
X768145Y428315D03*
X768145Y433315D03*
X768145Y438315D03*
X768145Y443315D03*
X768145Y448315D03*
X768145Y453315D03*
X768145Y458315D03*
X768145Y463315D03*
X768145Y468315D03*
X768145Y473315D03*
X768145Y478315D03*
X768145Y483315D03*
X768145Y488315D03*
X768145Y493315D03*
X768145Y498315D03*
X768145Y503315D03*
X768145Y508315D03*
X768145Y513315D03*
X768145Y518315D03*
D12*
X743145Y543315D03*
X738145Y543315D03*
X733145Y543315D03*
X728145Y543315D03*
X723145Y543315D03*
X718145Y543315D03*
X713145Y543315D03*
X708145Y543315D03*
X703145Y543315D03*
X698145Y543315D03*
X693145Y543315D03*
X688145Y543315D03*
X683145Y543315D03*
X678145Y543315D03*
X673145Y543315D03*
X668145Y543315D03*
X663145Y543315D03*
X658145Y543315D03*
X653145Y543315D03*
X648145Y543315D03*
X643145Y543315D03*
X638145Y543315D03*
X633145Y543315D03*
X628145Y543315D03*
X623145Y543315D03*
X618145Y543315D03*
X613145Y543315D03*
X608145Y543315D03*
X603145Y543315D03*
X598145Y543315D03*
X593145Y543315D03*
X588145Y543315D03*
X583145Y543315D03*
X578145Y543315D03*
X573145Y543315D03*
X568145Y543315D03*
D13*
X658145Y433315D03*
D14*
X742281Y629783D03*
X734281Y629783D03*
X726281Y629783D03*
X718281Y629783D03*
X718281Y613783D03*
X726281Y613783D03*
X734281Y613783D03*
X742281Y613783D03*
X742281Y594223D03*
X734281Y594223D03*
X726281Y594223D03*
X718281Y594223D03*
X718281Y578223D03*
X726281Y578223D03*
X734281Y578223D03*
X742281Y578223D03*
X701641Y629783D03*
X693641Y629783D03*
X685641Y629783D03*
X677641Y629783D03*
X677641Y613783D03*
X685641Y613783D03*
X693641Y613783D03*
X701641Y613783D03*
X701641Y594223D03*
X693641Y594223D03*
X685641Y594223D03*
X677641Y594223D03*
X677641Y578223D03*
X685641Y578223D03*
X693641Y578223D03*
X701641Y578223D03*
X742281Y665343D03*
X734281Y665343D03*
X726281Y665343D03*
X718281Y665343D03*
X718281Y649343D03*
X726281Y649343D03*
X734281Y649343D03*
X742281Y649343D03*
X701641Y665343D03*
X693641Y665343D03*
X685641Y665343D03*
X677641Y665343D03*
X677641Y649343D03*
X685641Y649343D03*
X693641Y649343D03*
X701641Y649343D03*
X662271Y629783D03*
X654271Y629783D03*
X646271Y629783D03*
X638271Y629783D03*
X638271Y613783D03*
X646271Y613783D03*
X654271Y613783D03*
X662271Y613783D03*
X662271Y594223D03*
X654271Y594223D03*
X646271Y594223D03*
X638271Y594223D03*
X638271Y578223D03*
X646271Y578223D03*
X654271Y578223D03*
X662271Y578223D03*
X662271Y665343D03*
X654271Y665343D03*
X646271Y665343D03*
X638271Y665343D03*
X638271Y649343D03*
X646271Y649343D03*
X654271Y649343D03*
X662271Y649343D03*
X623409Y629783D03*
X615409Y629783D03*
X607409Y629783D03*
X599409Y629783D03*
X599409Y613783D03*
X607409Y613783D03*
X615409Y613783D03*
X623409Y613783D03*
X623409Y594223D03*
X615409Y594223D03*
X607409Y594223D03*
X599409Y594223D03*
X599409Y578223D03*
X607409Y578223D03*
X615409Y578223D03*
X623409Y578223D03*
X585817Y629529D03*
X577817Y629529D03*
X569817Y629529D03*
X561817Y629529D03*
X561817Y613529D03*
X569817Y613529D03*
X577817Y613529D03*
X585817Y613529D03*
X585817Y594223D03*
X577817Y594223D03*
X569817Y594223D03*
X561817Y594223D03*
X561817Y578223D03*
X569817Y578223D03*
X577817Y578223D03*
X585817Y578223D03*
X623409Y665089D03*
X615409Y665089D03*
X607409Y665089D03*
X599409Y665089D03*
X599409Y649089D03*
X607409Y649089D03*
X615409Y649089D03*
X623409Y649089D03*
X585817Y665089D03*
X577817Y665089D03*
X569817Y665089D03*
X561817Y665089D03*
X561817Y649089D03*
X569817Y649089D03*
X577817Y649089D03*
X585817Y649089D03*
D15*
X423290Y428690D03*
X423290Y436690D03*
X423290Y444690D03*
X423290Y452690D03*
X407290Y452690D03*
X407290Y444690D03*
X407290Y436690D03*
X407290Y428690D03*
D16*
X274320Y205740D03*
X299720Y205740D03*
X325120Y205740D03*
X350520Y205740D03*
X375920Y205740D03*
X401320Y205740D03*
X274320Y180340D03*
X299720Y180340D03*
X325120Y180340D03*
X350520Y180340D03*
X375920Y180340D03*
X401320Y180340D03*
X426720Y205740D03*
X452120Y205740D03*
X426720Y180340D03*
X452120Y180340D03*
X477520Y205740D03*
X477520Y180340D03*
X502920Y205740D03*
X502920Y180340D03*
D17*
X537805Y192235D03*
X544305Y192235D03*
X550805Y192235D03*
X557305Y192235D03*
X563805Y192235D03*
X570305Y192235D03*
X576805Y192235D03*
X583305Y192235D03*
X589805Y192235D03*
X596305Y192235D03*
X596305Y250995D03*
X589805Y250995D03*
X583305Y250995D03*
X576805Y250995D03*
X570305Y250995D03*
X563805Y250995D03*
X557305Y250995D03*
X550805Y250995D03*
X544305Y250995D03*
X537805Y250995D03*
X652105Y192235D03*
X658605Y192235D03*
X665105Y192235D03*
X671605Y192235D03*
X678105Y192235D03*
X684605Y192235D03*
X691105Y192235D03*
X697605Y192235D03*
X704105Y192235D03*
X710605Y192235D03*
X710605Y250995D03*
X704105Y250995D03*
X697605Y250995D03*
X691105Y250995D03*
X684605Y250995D03*
X678105Y250995D03*
X671605Y250995D03*
X665105Y250995D03*
X658605Y250995D03*
X652105Y250995D03*
X766405Y192235D03*
X772905Y192235D03*
X779405Y192235D03*
X785905Y192235D03*
X792405Y192235D03*
X798905Y192235D03*
X805405Y192235D03*
X811905Y192235D03*
X818405Y192235D03*
X824905Y192235D03*
X824905Y250995D03*
X818405Y250995D03*
X811905Y250995D03*
X805405Y250995D03*
X798905Y250995D03*
X792405Y250995D03*
X785905Y250995D03*
X779405Y250995D03*
X772905Y250995D03*
X766405Y250995D03*
X883880Y192235D03*
X890380Y192235D03*
X896880Y192235D03*
X903380Y192235D03*
X909880Y192235D03*
X916380Y192235D03*
X922880Y192235D03*
X929380Y192235D03*
X935880Y192235D03*
X942380Y192235D03*
X942380Y250995D03*
X935880Y250995D03*
X929380Y250995D03*
X922880Y250995D03*
X916380Y250995D03*
X909880Y250995D03*
X903380Y250995D03*
X896880Y250995D03*
X890380Y250995D03*
X883880Y250995D03*
D15*
X867155Y190565D03*
X867155Y198565D03*
X867155Y206565D03*
X867155Y214565D03*
X851155Y214565D03*
X851155Y206565D03*
X851155Y198565D03*
X851155Y190565D03*
X867155Y228665D03*
X867155Y236665D03*
X867155Y244665D03*
X867155Y252665D03*
X851155Y252665D03*
X851155Y244665D03*
X851155Y236665D03*
X851155Y228665D03*
X749680Y190565D03*
X749680Y198565D03*
X749680Y206565D03*
X749680Y214565D03*
X733680Y214565D03*
X733680Y206565D03*
X733680Y198565D03*
X733680Y190565D03*
X749680Y228665D03*
X749680Y236665D03*
X749680Y244665D03*
X749680Y252665D03*
X733680Y252665D03*
X733680Y244665D03*
X733680Y236665D03*
X733680Y228665D03*
X635380Y190565D03*
X635380Y198565D03*
X635380Y206565D03*
X635380Y214565D03*
X619380Y214565D03*
X619380Y206565D03*
X619380Y198565D03*
X619380Y190565D03*
X635380Y228665D03*
X635380Y236665D03*
X635380Y244665D03*
X635380Y252665D03*
X619380Y252665D03*
X619380Y244665D03*
X619380Y236665D03*
X619380Y228665D03*
D18*
X791230Y590960D03*
X791230Y600960D03*
X791230Y610960D03*
X791230Y620960D03*
X801230Y580960D03*
X801230Y590960D03*
X801230Y600960D03*
X801230Y610960D03*
X801230Y620960D03*
X811230Y580960D03*
X811230Y590960D03*
X811230Y600960D03*
X811230Y610960D03*
X811230Y620960D03*
X821230Y580960D03*
X821230Y590960D03*
X821230Y600960D03*
X821230Y610960D03*
X821230Y620960D03*
X831230Y580960D03*
X831230Y590960D03*
X831230Y600960D03*
X831230Y610960D03*
X831230Y620960D03*
D15*
X1037970Y257240D03*
X1037970Y265240D03*
X1037970Y273240D03*
X1037970Y281240D03*
X1021970Y281240D03*
X1021970Y273240D03*
X1021970Y265240D03*
X1021970Y257240D03*
X990290Y156620D03*
X990290Y164620D03*
X990290Y172620D03*
X990290Y180620D03*
X974290Y180620D03*
X974290Y172620D03*
X974290Y164620D03*
X974290Y156620D03*
D19*
X885060Y527230D03*
X885060Y519230D03*
X885060Y511230D03*
X885060Y503230D03*
X885060Y495230D03*
X885060Y487230D03*
X885060Y479230D03*
X885060Y471230D03*
X885060Y463230D03*
X885060Y455230D03*
X885060Y447230D03*
X885060Y439230D03*
X885060Y431230D03*
X885060Y423230D03*
X885060Y415230D03*
X885060Y407230D03*
X885060Y399230D03*
X885060Y391230D03*
X885060Y383230D03*
X885060Y375230D03*
X885060Y367230D03*
X885060Y359230D03*
X999620Y359230D03*
X999620Y367230D03*
X999620Y375230D03*
X999620Y383230D03*
X999620Y391230D03*
X999620Y399230D03*
X999620Y407230D03*
X999620Y415230D03*
X999620Y423230D03*
X999620Y431230D03*
X999620Y439230D03*
X999620Y447230D03*
X999620Y455230D03*
X999620Y463230D03*
X999620Y471230D03*
X999620Y479230D03*
X999620Y487230D03*
X999620Y495230D03*
X999620Y503230D03*
X999620Y511230D03*
X999620Y519230D03*
X999620Y527230D03*
D20*
X998474Y307340D02*
X985266Y307340D01*
X985266Y281940D02*
X998474Y281940D01*
X1061466Y281940D02*
X1074674Y281940D01*
X1074674Y307340D02*
X1061466Y307340D01*
X998474Y256540D02*
X985266Y256540D01*
X985266Y231140D02*
X998474Y231140D01*
X1061466Y256540D02*
X1074674Y256540D01*
X1074674Y231140D02*
X1061466Y231140D01*
D21*
X378206Y316230D03*
X439674Y316230D03*
X378206Y303530D03*
X378206Y290830D03*
X439674Y303530D03*
X439674Y290830D03*
X378206Y278130D03*
X439674Y278130D03*
X378206Y265430D03*
X378206Y252730D03*
X439674Y265430D03*
X439674Y252730D03*
X378206Y240030D03*
X439674Y240030D03*
D22*
X478536Y680212D02*
X478536Y695452D01*
X433324Y695452D02*
X433324Y680212D01*
X478536Y630428D02*
X478536Y615188D01*
X433324Y615188D02*
X433324Y630428D01*
X1079246Y625602D02*
X1079246Y640842D01*
X1034034Y640842D02*
X1034034Y625602D01*
X1079246Y575818D02*
X1079246Y560578D01*
X1034034Y560578D02*
X1034034Y575818D01*
D15*
X524130Y561910D03*
X524130Y553910D03*
X524130Y545910D03*
X524130Y537910D03*
X540130Y537910D03*
X540130Y545910D03*
X540130Y553910D03*
X540130Y561910D03*
D23*
X1068070Y368300D03*
D24*
X1068070Y393700D03*
X1068070Y419100D03*
X1042670Y368300D03*
X1042670Y393700D03*
X1042670Y419100D03*
D25*
X40000Y160000D03*
X1060000Y680000D03*
X1060000Y160000D03*
X40000Y680000D03*
D26*
X38500Y346710D03*
D27*
X88500Y346710D03*
D28*
X281900Y440237D03*
X288400Y440237D03*
X294900Y440237D03*
X301400Y440237D03*
X307900Y440237D03*
X314400Y440237D03*
X320900Y440237D03*
X327400Y440237D03*
X333900Y440237D03*
X340400Y440237D03*
X340400Y498593D03*
X333900Y498593D03*
X327400Y498593D03*
X320900Y498593D03*
X314400Y498593D03*
X307900Y498593D03*
X301400Y498593D03*
X294900Y498593D03*
X288400Y498593D03*
X281900Y498593D03*
D29*
X262730Y495300D03*
X242730Y495300D03*
X262730Y463550D03*
X242730Y463550D03*
D30*
X279400Y524670D03*
X279400Y544670D03*
D31*
X375260Y463550D03*
X356260Y463550D03*
X375260Y440690D03*
X356260Y440690D03*
D29*
X334170Y556260D03*
X354170Y556260D03*
D31*
X353670Y535940D03*
X334670Y535940D03*
D32*
X257810Y544170D03*
X257810Y525170D03*
D29*
X106520Y196850D03*
X86520Y196850D03*
X180180Y175260D03*
X160180Y175260D03*
D33*
X105880Y546400D03*
X115580Y546400D03*
X125280Y546400D03*
X134980Y546400D03*
X144680Y546400D03*
X154380Y546400D03*
X164080Y546400D03*
X173780Y546400D03*
X183480Y546400D03*
D34*
X144780Y630100D03*
D30*
X58420Y623410D03*
X58420Y603410D03*
X29210Y623410D03*
X29210Y603410D03*
D35*
X45720Y563680D03*
D36*
X45720Y538680D03*
D37*
X306070Y594360D03*
X326070Y594360D03*
X286070Y594360D03*
X346070Y594360D03*
X266070Y594360D03*
D38*
X268070Y688360D03*
X348070Y688360D03*
D26*
X166370Y444900D03*
D27*
X166370Y494900D03*
D26*
X58420Y433470D03*
D27*
X58420Y483470D03*
D32*
X127000Y379120D03*
X127000Y398120D03*
D31*
X225400Y532130D03*
X206400Y532130D03*
D29*
X151290Y388620D03*
X171290Y388620D03*
D30*
X224790Y552610D03*
X224790Y572610D03*
D39*
X129280Y227390D03*
X129280Y272990D03*
D40*
X56280Y250190D03*
D26*
X142640Y312420D03*
D27*
X192640Y312420D03*
D26*
X258210Y290830D03*
D27*
X308210Y290830D03*
D29*
X222410Y170180D03*
X242410Y170180D03*
D41*
X177292Y247904D03*
X177292Y224790D03*
X177292Y201676D03*
D42*
X239270Y224790D03*
D26*
X265030Y388620D03*
D27*
X215030Y388620D03*
D43*
X538060Y693850D03*
X517060Y693850D03*
D32*
X510660Y661850D03*
X510660Y642850D03*
D43*
X107020Y151130D03*
X86020Y151130D03*
X180680Y151130D03*
X159680Y151130D03*
D31*
X106020Y175260D03*
X87020Y175260D03*
X179680Y129540D03*
X160680Y129540D03*
D22*
X831850Y657860D02*
X831850Y673100D01*
X806450Y673100D02*
X806450Y657860D01*
X781050Y657860D02*
X781050Y673100D01*
D44*
X480700Y405470D03*
X480700Y384470D03*
X497200Y384470D03*
X497200Y405470D03*
D30*
X1018540Y437040D03*
X1018540Y457040D03*
X383540Y556420D03*
X383540Y576420D03*
X316230Y410050D03*
X316230Y390050D03*
D29*
X768510Y323850D03*
X788510Y323850D03*
X904400Y275590D03*
X924400Y275590D03*
X867250Y266700D03*
X847250Y266700D03*
X1005680Y196850D03*
X985680Y196850D03*
X636110Y270510D03*
X616110Y270510D03*
X114140Y513080D03*
X94140Y513080D03*
D45*
X412750Y521640D03*
X425450Y521640D03*
X438150Y521640D03*
X450850Y521640D03*
X463550Y521640D03*
X476250Y521640D03*
X488950Y521640D03*
X488950Y575640D03*
X476250Y575640D03*
X463550Y575640D03*
X450850Y575640D03*
X438150Y575640D03*
X425450Y575640D03*
X412750Y575640D03*
D15*
X487300Y495870D03*
X487300Y487870D03*
X487300Y479870D03*
X487300Y471870D03*
X503300Y471870D03*
X503300Y479870D03*
X503300Y487870D03*
X503300Y495870D03*
D46*
X514350Y300170D03*
X501650Y300170D03*
X488950Y300170D03*
X476250Y300170D03*
X476250Y245930D03*
X488950Y245930D03*
X501650Y245930D03*
X514350Y245930D03*
D32*
X500380Y145390D03*
X500380Y126390D03*
X480060Y147930D03*
X480060Y128930D03*
X459740Y150470D03*
X459740Y131470D03*
D22*
X1057910Y473710D02*
X1073150Y473710D01*
X1073150Y499110D02*
X1057910Y499110D01*
X1057910Y524510D02*
X1073150Y524510D01*
D15*
X526160Y576010D03*
X526160Y584010D03*
X526160Y592010D03*
X526160Y600010D03*
X510160Y600010D03*
X510160Y592010D03*
X510160Y584010D03*
X510160Y576010D03*
D47*
X913130Y555690D03*
X924130Y555690D03*
X935130Y555690D03*
X946130Y555690D03*
X957130Y555690D03*
X968130Y555690D03*
X979130Y555690D03*
X990130Y555690D03*
D48*
X1008130Y660690D03*
D47*
X1001130Y555690D03*
D49*
X897630Y555690D03*
D48*
X1008130Y598690D03*
D50*
X1009130Y702190D03*
D51*
X874130Y706690D03*
D32*
X306070Y548030D03*
X306070Y567030D03*
D31*
X271120Y565150D03*
X252120Y565150D03*
D20*
X622300Y373634D02*
X622300Y360426D01*
X647700Y360426D02*
X647700Y373634D01*
X673100Y373634D02*
X673100Y360426D01*
X698500Y360426D02*
X698500Y373634D01*
X723900Y373634D02*
X723900Y360426D01*
D30*
X407670Y611030D03*
X407670Y631030D03*
D16*
X353060Y372110D03*
X378460Y372110D03*
X403860Y372110D03*
X429260Y372110D03*
X454660Y372110D03*
X353060Y397510D03*
X378460Y397510D03*
X403860Y397510D03*
X429260Y397510D03*
X454660Y397510D03*
D52*
X514350Y281940D03*
X501650Y281940D03*
X488950Y281940D03*
X514350Y264160D03*
X501650Y264160D03*
X488950Y264160D03*
M02*
